<svg width="16" height="16" viewBox="0 0 16 16" fill="none" xmlns="http://www.w3.org/2000/svg">
<g clip-path="url(#clip0_55_293)">
<path d="M15.1998 5.63568V12.05C15.1998 12.6467 14.9628 13.219 14.5408 13.641C14.1188 14.0629 13.5465 14.3 12.9498 14.3H3.0498C2.45307 14.3 1.88077 14.0629 1.45881 13.641C1.03686 13.219 0.799805 12.6467 0.799805 12.05V5.63568L7.7712 9.73787C7.84046 9.77872 7.9194 9.80026 7.9998 9.80026C8.08021 9.80026 8.15915 9.77872 8.2284 9.73787L15.1998 5.63568ZM12.9498 2.59998C13.5034 2.59989 14.0377 2.80392 14.4503 3.17304C14.8629 3.54216 15.125 4.05045 15.1863 4.60068L8.50682 8.52974C8.19387 8.71382 7.80574 8.71382 7.49279 8.52973L0.813305 4.60068C0.874647 4.05045 1.1367 3.54216 1.54932 3.17304C1.96194 2.80392 2.49617 2.59989 3.0498 2.59998H12.9498Z" fill="#0BBC5A"/>
</g>
<defs>
<clipPath id="clip0_55_293">
<rect width="16" height="16" fill="white"/>
</clipPath>
</defs>
</svg>
